# xmcd
#
# Track frame offsets:
#	150
#	18065
#	31341
#	50512
#	67921
#	84872
#	100059
#	112337
#	124063
#	138484
#	153844
#	174846
#
# Disc length: 2482 seconds
#
# Revision: 1
# Processed by: cddbd v1.4PL0 Copyright (c) Steve Scherf et al.
# Submitted via: dBpowerAMP V4.0
#
DISCID=8c09b00c
DTITLE=Robinella and the CC Stringband - Robinella and the CC Stringband
DYEAR=2003
DGENRE=Bluegrass
TTITLE0=Man Over
TTITLE1=Tennessee Saturday Night
TTITLE2=Dress Me Up, Dress Me Down
TTITLE3=Mornin' Dove
TTITLE4=Honey Honey Bee
TTITLE5=Always the Same, Always the Best
TTITLE6=Hold to God's Unchanging Hand
TTITLE7=Mistakes
TTITLE8=Candy Coated Valentine
TTITLE9=Marie Laveaux
TTITLE10=No Saint, No Prize
TTITLE11=Solitude
EXTD=
EXTT0=
EXTT1=
EXTT2=
EXTT3=
EXTT4=
EXTT5=
EXTT6=
EXTT7=
EXTT8=
EXTT9=
EXTT10=
EXTT11=
PLAYORDER=
